<svg width="116" height="66" viewBox="0 0 116 66" fill="none" xmlns="http://www.w3.org/2000/svg">
<path fill-rule="evenodd" clip-rule="evenodd" d="M95.3796 24.3824C93.3078 24.3824 91.3086 24.6926 89.4235 25.2642C85.9846 10.7768 72.9647 0 57.4253 0C41.9829 0 29.0285 10.6446 25.4934 24.9959C23.8966 24.597 22.2271 24.3824 20.5069 24.3824C9.18143 24.3824 0 33.5638 0 44.8888C0 56.2148 9.18143 65.3957 20.5069 65.3957H52.41C54.0454 65.6459 55.7202 65.7761 57.4253 65.7761C59.1309 65.7761 60.8057 65.6459 62.4411 65.3957H95.3796C106.705 65.3957 115.886 56.2148 115.886 44.8888C115.886 33.5638 106.705 24.3824 95.3796 24.3824Z" fill="#DDEEFB"/>
</svg>
