<svg width="11" height="19" viewBox="0 0 11 19" fill="none" xmlns="http://www.w3.org/2000/svg">
<path d="M9.689 0.00676069H7.274C6.66846 -0.0274711 6.06262 0.0685774 5.49735 0.288425C4.93209 0.508273 4.42056 0.846806 3.99728 1.28118C3.57399 1.71556 3.2488 2.23567 3.04364 2.80643C2.83848 3.37718 2.75812 3.98531 2.808 4.58976V6.70676H0.380001C0.279219 6.70676 0.182563 6.7468 0.1113 6.81806C0.0400357 6.88932 0 6.98598 0 7.08676V10.1488C0 10.2495 0.0400357 10.3462 0.1113 10.4175C0.182563 10.4887 0.279219 10.5288 0.380001 10.5288H2.808V18.2548C2.808 18.3555 2.84804 18.4522 2.9193 18.5235C2.99056 18.5947 3.08722 18.6348 3.188 18.6348H6.356C6.45678 18.6348 6.55344 18.5947 6.6247 18.5235C6.69596 18.4522 6.736 18.3555 6.736 18.2548V10.5248H9.575C9.6249 10.5248 9.67432 10.5149 9.72042 10.4958C9.76652 10.4767 9.80841 10.4487 9.8437 10.4135C9.87899 10.3782 9.90698 10.3363 9.92607 10.2902C9.94517 10.2441 9.955 10.1947 9.955 10.1448V7.08276C9.955 6.98198 9.91496 6.88532 9.8437 6.81406C9.77244 6.7428 9.67578 6.70276 9.575 6.70276H6.735V4.90676C6.735 4.04576 6.94 3.60676 8.062 3.60676H9.689C9.78978 3.60676 9.88644 3.56673 9.9577 3.49546C10.029 3.4242 10.069 3.32754 10.069 3.22676V0.390761C10.0695 0.340523 10.0601 0.290679 10.0412 0.244112C10.0224 0.197546 9.99446 0.155182 9.95913 0.119471C9.92379 0.0837595 9.88172 0.0554107 9.83535 0.0360643C9.78898 0.0167179 9.73924 0.0067579 9.689 0.00676069Z" fill="#0C0C41"/>
</svg>
