<svg width="24" height="26" viewBox="0 0 24 26" fill="none" xmlns="http://www.w3.org/2000/svg">
<path d="M6.81143 21.372C6.02823 19.9675 5.61403 18.2458 5.61403 16.3817C5.61403 13.249 8.32599 10.6989 11.6529 10.6989C14.9862 10.6989 17.6917 13.2491 17.6917 16.3817C17.6917 16.7377 17.983 17.029 18.339 17.029C18.695 17.029 18.9863 16.7377 18.9863 16.3817C18.9863 12.5306 15.6982 9.40434 11.6529 9.40434C7.60767 9.40434 4.31949 12.5371 4.31949 16.3817C4.31949 18.4659 4.792 20.4141 5.68521 22.0063C6.559 23.5662 7.16744 24.2847 8.28716 25.4173C8.41659 25.5468 8.57842 25.6115 8.74669 25.6115C8.90852 25.6115 9.07679 25.5532 9.19329 25.4173C9.45221 25.1714 9.45221 24.7571 9.19978 24.5047C8.203 23.5015 7.64638 22.8608 6.81143 21.372Z" fill="#567DF4"/>
<path d="M4.45544 3.11973C6.67554 1.90935 9.09624 1.29448 11.6658 1.29448C14.2419 1.29448 16.3972 1.84467 18.8762 3.12622C18.9733 3.17155 19.0704 3.1974 19.174 3.1974C19.407 3.1974 19.6335 3.06797 19.75 2.84789C19.9119 2.53071 19.7889 2.13593 19.4717 1.9741C16.8309 0.608437 14.4231 0 11.6658 0C8.88264 0 6.24835 0.666689 3.83408 1.98059C3.51691 2.15535 3.4069 2.5437 3.57516 2.86087C3.74992 3.17798 4.13827 3.28806 4.45544 3.11973Z" fill="#567DF4"/>
<path d="M11.6069 6.25217C7.43217 6.25217 3.61341 8.58876 1.88525 12.2004C1.29623 13.4237 0.998535 14.8347 0.998535 16.3881C0.998535 18.1357 1.30922 19.8056 1.9435 21.5079C2.07293 21.8445 2.44187 22.0127 2.77846 21.8897C3.11505 21.7603 3.28331 21.3914 3.16031 21.0548C2.39005 18.9901 2.29945 17.3978 2.29945 16.3881C2.29945 15.0289 2.55188 13.8056 3.05673 12.757C4.5713 9.58549 7.93054 7.54022 11.6134 7.54022C16.7849 7.54022 20.9921 11.5079 20.9921 16.3881C20.9921 17.7797 19.7817 18.9059 18.2995 18.9059C16.8173 18.9059 15.607 17.7732 15.607 16.3881C15.607 14.2845 13.8205 12.5758 11.6199 12.5758C9.4192 12.5758 7.63278 14.2845 7.63278 16.3881C7.63278 18.9447 8.62957 21.3461 10.4354 23.1454C11.8335 24.537 13.1798 25.3008 15.2445 25.8639C15.2962 25.8833 15.3545 25.8898 15.4127 25.8898C15.6975 25.8898 15.9564 25.7021 16.0341 25.4173C16.1312 25.0743 15.9241 24.7183 15.581 24.6212C13.7557 24.1228 12.5648 23.4496 11.3415 22.2328C9.78158 20.6794 8.92077 18.6017 8.92077 16.3946C8.92077 15.003 10.1312 13.8768 11.6133 13.8768C13.0955 13.8768 14.3059 15.0095 14.3059 16.3946C14.3059 18.4982 16.0988 20.2069 18.293 20.2069C20.4871 20.2069 22.28 18.4982 22.28 16.3946C22.2801 10.8024 17.4905 6.25217 11.6069 6.25217Z" fill="#567DF4"/>
<path d="M23.1868 8.93182C21.8988 7.13248 20.2677 5.72144 18.3324 4.72471C14.2548 2.62761 9.05085 2.63411 4.97966 4.73763C3.03791 5.74085 1.40034 7.16483 0.118785 8.97715C-0.0883156 9.26841 -0.0171382 9.66969 0.274125 9.87685C0.39063 9.95452 0.52006 9.99336 0.649551 9.99336C0.850219 9.99336 1.05083 9.90276 1.18032 9.728C2.33888 8.084 3.8211 6.79595 5.57517 5.88982C9.28393 3.97398 14.0283 3.96749 17.7435 5.8769C19.4911 6.7701 20.9668 8.05166 22.1318 9.68273C22.3389 9.974 22.7467 10.0387 23.038 9.83158C23.3292 9.62436 23.394 9.22309 23.1868 8.93182Z" fill="#567DF4"/>
<path d="M19.3743 21.7994C18.8565 21.89 18.3323 21.9224 18.0216 21.9224C16.7271 21.9224 15.6526 21.6182 14.74 20.9968C13.1672 19.9289 12.2287 18.2072 12.2287 16.3884C12.2287 16.0324 11.9374 15.7411 11.5814 15.7411C11.2254 15.7411 10.9341 16.0324 10.9341 16.3884C10.9341 18.6408 12.0862 20.7638 14.0086 22.0712C15.1283 22.8285 16.4811 23.2169 18.0215 23.2169C18.2028 23.2169 18.8435 23.2104 19.6008 23.0745C19.9503 23.0097 20.1898 22.6732 20.1251 22.3237C20.0604 21.9742 19.7238 21.7347 19.3743 21.7994Z" fill="#567DF4"/>
</svg>
