<svg width="18" height="18" viewBox="0 0 18 18" fill="none" xmlns="http://www.w3.org/2000/svg">
<path d="M17.852 5.262C17.8375 4.51997 17.6968 3.78582 17.436 3.091C17.2053 2.49602 16.8529 1.95576 16.4014 1.50479C15.9499 1.05381 15.4092 0.702043 14.814 0.472C14.1191 0.211454 13.385 0.0707878 12.643 0.056C11.685 0.011 11.381 0 8.95198 0C6.52298 0 6.21698 0.011 5.26198 0.052C4.51995 0.0664973 3.7858 0.207172 3.09098 0.468C2.49288 0.691826 1.95116 1.0441 1.50398 1.5C1.04942 1.94808 0.697636 2.48957 0.472977 3.087C0.210742 3.78161 0.0683841 4.51572 0.0519766 5.258C0.0109766 6.216 0.000976562 6.52 0.000976562 8.95C0.000976562 11.38 0.0109766 11.684 0.0519766 12.639C0.0667551 13.3811 0.20777 14.1152 0.468977 14.81C0.699315 15.4047 1.05122 15.9448 1.50219 16.3958C1.95315 16.8468 2.49326 17.1987 3.08798 17.429C3.78289 17.6895 4.51698 17.8302 5.25898 17.845C6.21298 17.887 6.51798 17.897 8.94698 17.897C11.376 17.897 11.681 17.887 12.635 17.845C13.377 17.8306 14.1112 17.6899 14.806 17.429C15.4009 17.199 15.9412 16.8472 16.3922 16.3962C16.8432 15.9452 17.195 15.4049 17.425 14.81C17.6854 14.1151 17.8261 13.381 17.841 12.639C17.883 11.685 17.893 11.38 17.893 8.951C17.893 6.522 17.893 6.217 17.848 5.263L17.852 5.262ZM16.24 12.569C16.2341 13.1363 16.1299 13.6983 15.932 14.23C15.7828 14.6162 15.5545 14.967 15.2617 15.2598C14.969 15.5525 14.6182 15.7808 14.232 15.93C13.7002 16.1276 13.1383 16.2318 12.571 16.238C11.627 16.28 11.344 16.29 8.95598 16.29C6.56798 16.29 6.28098 16.28 5.34098 16.238C4.77365 16.2323 4.21164 16.1281 3.67998 15.93C3.29138 15.7871 2.94 15.5584 2.65198 15.261C2.35564 14.9723 2.12743 14.6211 1.98398 14.233C1.78639 13.7012 1.68219 13.1393 1.67598 12.572C1.63398 11.628 1.62398 11.345 1.62398 8.957C1.62398 6.569 1.63398 6.282 1.67598 5.342C1.68171 4.77468 1.78592 4.21266 1.98398 3.681C2.12565 3.29232 2.35411 2.94108 2.65198 2.654C2.9412 2.35731 3.29312 2.12907 3.68198 1.986C4.21378 1.78845 4.7757 1.68426 5.34298 1.678C6.28698 1.636 6.56998 1.626 8.95798 1.626C11.346 1.626 11.633 1.637 12.573 1.678C13.1403 1.68383 13.7023 1.78805 14.234 1.986C14.6225 2.12854 14.9739 2.35687 15.262 2.654C15.5583 2.94273 15.7865 3.29392 15.93 3.682C16.1275 4.2138 16.2317 4.77573 16.238 5.343C16.28 6.287 16.29 6.57 16.29 8.958C16.29 11.346 16.279 11.626 16.238 12.57L16.24 12.569Z" fill="#0C0C41"/>
<path d="M8.95098 4.353C8.04119 4.353 7.15183 4.62278 6.39536 5.12823C5.6389 5.63369 5.04931 6.35211 4.70114 7.19265C4.35298 8.03319 4.26188 8.95811 4.43937 9.85042C4.61686 10.7427 5.05498 11.5624 5.6983 12.2057C6.34162 12.849 7.16125 13.2871 8.05357 13.4646C8.94588 13.6421 9.87079 13.551 10.7113 13.2028C11.5519 12.8547 12.2703 12.2651 12.7758 11.5086C13.2812 10.7522 13.551 9.8628 13.551 8.953C13.551 7.73301 13.0664 6.56297 12.2037 5.7003C11.341 4.83763 10.171 4.353 8.95098 4.353ZM8.95098 11.933C8.3612 11.933 7.78466 11.7581 7.29428 11.4304C6.80389 11.1028 6.42168 10.6371 6.19598 10.0922C5.97028 9.54727 5.91122 8.94768 6.02629 8.36923C6.14135 7.79078 6.42535 7.25945 6.84239 6.84241C7.25943 6.42537 7.79078 6.14136 8.36923 6.0263C8.94768 5.91124 9.54725 5.97029 10.0921 6.19599C10.637 6.42169 11.1028 6.8039 11.4304 7.29429C11.7581 7.78468 11.933 8.36122 11.933 8.951C11.9327 9.7418 11.6185 10.5001 11.0593 11.0593C10.5001 11.6185 9.74178 11.9327 8.95098 11.933Z" fill="#0C0C41"/>
<path d="M14.807 4.171C14.807 4.38322 14.744 4.59067 14.6261 4.76712C14.5082 4.94357 14.3406 5.0811 14.1446 5.16232C13.9485 5.24353 13.7328 5.26478 13.5246 5.22337C13.3165 5.18197 13.1253 5.07978 12.9752 4.92972C12.8252 4.77966 12.723 4.58847 12.6816 4.38033C12.6402 4.17218 12.6614 3.95644 12.7426 3.76038C12.8238 3.56431 12.9614 3.39673 13.1378 3.27883C13.3143 3.16093 13.5217 3.09799 13.734 3.09799C14.0185 3.09799 14.2915 3.21104 14.4927 3.41227C14.6939 3.6135 14.807 3.88642 14.807 4.171Z" fill="#0C0C41"/>
</svg>
