<svg width="52" height="52" viewBox="0 0 52 52" fill="none" xmlns="http://www.w3.org/2000/svg">
<circle cx="25.9352" cy="25.9352" r="25.9352" fill="#EEF7FE"/>
<mask id="mask0" mask-type="alpha" maskUnits="userSpaceOnUse" x="0" y="2" width="51" height="50">
<path d="M50.5479 27.0806C50.5485 30.3529 49.9045 33.5932 48.6528 36.6165C47.4011 39.6399 45.5662 42.387 43.2528 44.701C40.9395 47.0151 38.193 48.8507 35.1703 50.1031C32.1476 51.3554 28.9078 52 25.636 52C19.0278 52 12.6903 49.3746 8.01765 44.7013C3.34498 40.028 0.71991 33.6896 0.71991 27.0806C0.71991 20.4716 3.34498 14.1332 8.01765 9.45991C12.6903 4.78662 19.0278 2.16119 25.636 2.16119C28.9078 2.16119 32.1476 2.80578 35.1703 4.05815C38.193 5.31052 40.9395 7.14613 43.2528 9.46017C45.5662 11.7742 47.4011 14.5213 48.6528 17.5447C49.9045 20.568 50.5485 23.8083 50.5479 27.0806Z" fill="#F1F3F6"/>
</mask>
<g mask="url(#mask0)">
<path d="M45.9052 55.2401H6.37628C6.44822 54.5402 6.80463 52.1069 8.58341 48.9966C10.6957 45.2976 20.1128 45.8242 20.43 45.2976C20.5673 45.0687 20.6458 44.1366 20.6916 43.1587C20.7472 41.8897 20.7472 40.5423 20.7472 40.5423L26.1424 42.1318L31.5376 40.5423C31.5376 40.5423 31.5376 41.8799 31.5899 43.1587C31.6389 44.1399 31.7141 45.085 31.8547 45.3172C32.1817 45.8438 41.5858 45.3172 43.7013 49.0162C45.4768 52.1069 45.8365 54.5402 45.9052 55.2401Z" fill="#E1A387"/>
<path d="M45.9052 55.2397H6.37628C6.44822 54.5398 6.80463 52.1065 8.58341 48.9962C10.3622 45.886 17.3792 45.7584 19.7008 45.4837C20.1226 45.4314 20.3875 45.379 20.4365 45.2973C20.4365 45.2973 26.0443 52.5971 31.8613 45.2973C31.9136 45.3888 32.2471 45.4477 32.7703 45.5066C35.2423 45.7682 41.9618 45.9448 43.7079 48.9962C45.4768 52.1065 45.8365 54.5398 45.9052 55.2397Z" fill="#860018"/>
<path d="M32.7633 45.5066C28.1855 51.8743 22.7249 48.3847 19.684 45.4837C20.1058 45.4314 20.3706 45.379 20.4197 45.2973C20.4197 45.2973 26.0274 52.5971 31.8444 45.2973C31.9066 45.3888 32.2401 45.4477 32.7633 45.5066Z" fill="#6B1524"/>
<path d="M16.9087 29.5207C16.9087 29.5207 14.4072 25.2951 13.374 28.9156C12.3407 32.5361 14.8388 34.2629 16.477 33.9195C18.1152 33.5761 16.9087 29.5207 16.9087 29.5207Z" fill="#E1A387"/>
<path d="M16.6184 30.2108C16.6184 30.2108 14.8952 27.5355 14.2903 28.6148C13.9221 29.3778 13.7738 30.2283 13.8619 31.0709C13.8619 31.0709 14.2052 29.5632 15.3268 30.4168C15.3268 30.4168 14.2477 32.8305 16.4483 32.1404C16.4353 32.1502 17.341 31.4176 16.6184 30.2108Z" fill="#CE8D75"/>
<path d="M34.8645 29.5207C34.8645 29.5207 37.3659 25.2951 38.3992 28.9156C39.4324 32.5361 36.9343 34.2629 35.2961 33.9195C33.6579 33.5761 34.8645 29.5207 34.8645 29.5207Z" fill="#E1A387"/>
<path d="M34.8993 30.4916C34.8993 30.4916 36.6225 27.8163 37.2274 28.8956C37.5957 29.6586 37.7451 30.5088 37.659 31.3517C37.659 31.3517 37.3124 29.844 36.1909 30.6976C36.1909 30.6976 37.2699 33.1113 35.0693 32.4212C35.0693 32.431 34.1669 31.6984 34.8993 30.4916Z" fill="#CE8D75"/>
<path d="M34.9285 36.4184C34.7388 39.5254 31.1976 41.8245 28.8826 42.8515C27.5563 43.4701 26.0677 43.6511 24.6318 43.3682C15.8818 40.7943 16.1303 34.8649 16.5227 33.2002C16.915 31.5355 16.3788 28.2944 17.4055 24.4482C17.5377 23.9505 17.7345 23.4722 17.9908 23.0255C19.5571 20.2914 22.8955 19.4116 22.8955 19.4116C28.6799 15.6734 32.7279 19.3462 34.062 22.3551C34.1506 22.5515 34.2292 22.7524 34.2974 22.9568C35.3078 26.054 35.1247 32.932 34.9285 36.4184Z" fill="#F2C2AC"/>
<path fill-rule="evenodd" clip-rule="evenodd" d="M31.9794 16.8219C32.0023 16.8162 32.0253 16.8107 32.0483 16.8053C32.2474 16.7564 32.4495 16.7204 32.6532 16.6974C32.8238 16.6991 32.9941 16.7112 33.1633 16.7334C33.3431 16.7612 33.5203 16.8039 33.693 16.8609C36.2108 17.708 36.4102 21.6523 36.0702 25.0863C36.044 25.3283 36.0179 25.5704 35.9884 25.8058C35.8221 27.1253 35.5874 28.4353 35.2854 29.7305C35.2551 29.8659 35.226 29.9852 35.2013 30.0866C35.186 30.1492 35.1724 30.2051 35.1612 30.2538C35.1252 30.4042 35.1023 30.486 35.1023 30.486L35.0402 30.0739V30.0183C34.9061 28.9881 34.3862 27.657 33.7519 26.303C33.011 24.805 32.2055 23.3403 31.3378 21.913C29.8392 22.3999 27.5807 23.0627 24.6964 23.7023C24.134 23.8266 23.552 23.9509 22.9405 24.0719C22.11 24.2376 21.238 24.3989 20.3247 24.5559C16.6984 25.1675 15.0472 24.1046 14.3245 22.7375C14.2667 22.6312 14.2143 22.5221 14.1676 22.4104C13.4907 20.7752 13.9779 18.8554 13.9779 18.8554C14.1676 19.2576 14.5861 19.2969 15.1878 19.0843C15.2991 19.0456 15.4083 19.0008 15.5148 18.9502C16.3231 18.5941 17.3878 17.9061 18.6191 17.1105C20.69 15.7723 23.2321 14.1296 25.818 13.2497C26.3301 13.0694 26.8709 12.9841 27.4137 12.9978C27.6707 13.0069 27.9261 13.0431 28.1755 13.1058C28.9862 13.327 29.7204 13.7671 30.2976 14.378C30.3859 14.4696 30.4742 14.5612 30.5592 14.656C31.0833 15.2624 31.5303 15.9314 31.89 16.6478C31.9204 16.7056 31.9501 16.7637 31.9794 16.8219Z" fill="#A16929"/>
<path d="M16.9021 19.1524C16.7942 19.4795 16.4443 25.9093 16.7778 28.8266L19.8612 20.7386L16.9021 19.1524Z" fill="#A16929"/>
<path d="M30.5669 14.6433C29.7723 15.5427 28.9646 16.4257 28.0818 17.2597C25.6392 19.5818 22.8108 21.5965 19.5149 22.4926C17.8799 22.9308 15.9704 23.2056 14.3256 22.7379C14.2678 22.6316 14.2154 22.5225 14.1687 22.4108C14.3093 22.4533 14.4499 22.486 14.6036 22.5187C17.5464 23.1205 20.8163 22.0511 23.3504 20.5564C26.0072 18.9158 28.3601 16.8279 30.3053 14.3849C30.3936 14.4569 30.4818 14.5485 30.5669 14.6433Z" fill="#C98643"/>
<path d="M28.1836 13.0928C26.6926 15.549 24.7339 17.7141 22.4647 19.1172C20.6205 20.2553 18.5409 20.6805 16.4646 19.9839C15.9524 19.8249 15.5052 19.5049 15.1893 19.0714C15.3007 19.0327 15.4098 18.9879 15.5163 18.9373C15.7095 19.1505 15.9443 19.322 16.2062 19.4409C17.3036 19.9318 18.5323 20.0468 19.7017 19.768C21.6897 19.2872 23.4195 17.9561 24.8059 16.4975C25.8064 15.4305 26.6839 14.2545 27.4217 12.9914C27.6785 12.9984 27.9339 13.0324 28.1836 13.0928Z" fill="#C98643"/>
<path d="M32.1945 17.2363C30.7575 18.9181 29.1561 20.452 27.414 21.8151C26.5504 22.5017 25.6427 23.1309 24.6968 23.6989C24.1344 23.8232 23.5524 23.9474 22.9409 24.0685C24.7481 23.2476 26.4162 22.1497 27.8849 20.8143C29.3367 19.5345 30.6788 18.1353 31.8969 16.6313C32.0016 16.834 32.0997 17.0368 32.1945 17.2363Z" fill="#C98643"/>
<path d="M20.3806 26.5542C19.3996 27.156 18.8143 28.631 19.3996 29.5828C19.4258 29.6318 19.5271 29.6122 19.5206 29.5566C19.4742 29.1163 19.5277 28.6711 19.6772 28.2544C19.8267 27.8376 20.0682 27.4599 20.3838 27.1495C20.8055 26.7651 21.3534 26.5486 21.9239 26.5412C22.5779 26.4986 22.8656 27.0841 23.379 27.2836C23.4836 27.3261 23.6177 27.2574 23.5817 27.1495C23.1762 25.9263 21.3844 25.9459 20.3806 26.5542Z" fill="#390A0A"/>
<path d="M23.8429 29.3019C23.8429 30.8881 22.862 32.1767 21.6652 32.1767C20.4685 32.1767 19.4908 30.8881 19.4908 29.3019C19.4908 27.7156 20.4717 26.4271 21.6652 26.4271C22.8587 26.4271 23.8429 27.7156 23.8429 29.3019Z" fill="white"/>
<path d="M23.3829 29.3867C23.3829 30.5674 22.6407 31.5257 21.7251 31.5257C20.8096 31.5257 20.0673 30.5674 20.0673 29.3867C20.0673 28.2061 20.8096 27.2445 21.7251 27.2445C22.6407 27.2445 23.3829 28.2126 23.3829 29.3867Z" fill="#3D79CA"/>
<path d="M23.1178 29.4193C23.1178 30.4005 22.5096 31.2246 21.7608 31.2246C21.012 31.2246 20.4039 30.4168 20.4039 29.4193C20.4039 28.4218 21.012 27.614 21.7608 27.614C22.5096 27.614 23.1178 28.4251 23.1178 29.4193Z" fill="#390A0A"/>
<path d="M23.3821 27.8659C23.3821 28.0621 22.9962 28.2191 22.5221 28.2191C22.048 28.2191 21.6654 28.0621 21.6654 27.8659C21.6654 27.6697 22.0512 27.5094 22.5221 27.5094C22.9929 27.5094 23.3821 27.6664 23.3821 27.8659Z" fill="white"/>
<path d="M31.4323 26.5542C32.4132 27.156 32.9985 28.631 32.4132 29.5828C32.3871 29.6318 32.2857 29.6122 32.2922 29.5566C32.3386 29.1163 32.2851 28.6711 32.1356 28.2544C31.9862 27.8376 31.7446 27.4599 31.429 27.1495C31.0085 26.7653 30.4617 26.5488 29.8922 26.5412C29.2382 26.4986 28.9472 27.0841 28.4339 27.2836C28.3292 27.3261 28.1952 27.2574 28.2311 27.1495C28.6366 25.9263 30.4284 25.9459 31.4323 26.5542Z" fill="#390A0A"/>
<path d="M32.1658 29.3019C32.1658 30.8881 31.1848 32.1767 29.9913 32.1767C28.7978 32.1767 27.8169 30.8881 27.8169 29.3019C27.8169 27.7156 28.7978 26.4271 29.9913 26.4271C31.1848 26.4271 32.1658 27.7156 32.1658 29.3019Z" fill="white"/>
<path d="M31.7041 29.3867C31.7041 30.5674 30.9618 31.5257 30.0463 31.5257C29.1307 31.5257 28.3885 30.5772 28.3885 29.3867C28.3885 28.1963 29.1307 27.2445 30.043 27.2445C30.9553 27.2445 31.7041 28.2126 31.7041 29.3867Z" fill="#3D79CA"/>
<path d="M31.4433 29.4193C31.4433 30.4005 30.835 31.2246 30.083 31.2246C29.3309 31.2246 28.726 30.4168 28.726 29.4193C28.726 28.4218 29.3342 27.614 30.083 27.614C30.8318 27.614 31.4433 28.4251 31.4433 29.4193Z" fill="#390A0A"/>
<path d="M31.7039 27.8659C31.7039 28.0621 31.3214 28.2191 30.8472 28.2191C30.3731 28.2191 29.9905 28.0621 29.9905 27.8659C29.9905 27.6697 30.3731 27.5094 30.8472 27.5094C31.3214 27.5094 31.7039 27.6664 31.7039 27.8659Z" fill="white"/>
<path d="M25.8459 27.9147C25.8459 27.9147 25.1919 27.2605 25.0742 29.5892C24.9565 31.9178 25.0742 34.3511 25.0742 34.3511C25.0742 34.3511 23.5309 33.4484 24.0442 34.737C24.3222 35.4303 24.9761 35.7868 25.6791 35.97C25.9345 36.0438 26.2057 36.043 26.4606 35.9677C26.7156 35.8923 26.9436 35.7456 27.1179 35.5448C27.301 35.3649 28.2558 34.3968 27.9549 34.096C27.8111 33.9488 26.974 34.2955 26.7615 34.3511C26.7549 34.3511 27.0034 27.4012 25.8459 27.9147Z" fill="#E1A387"/>
<path d="M29.6964 37.3442C29.6964 37.3442 26.6653 42.5411 22.4799 37.5405C22.4799 37.5405 24.9192 36.7163 25.8119 37.4489L26.1389 37.8185C26.1389 37.8185 27.0806 36.6574 29.6964 37.3442Z" fill="#CE8D75"/>
<path d="M29.6964 37.344C29.6964 37.344 26.6653 42.5409 22.4799 37.5403C22.5028 37.5403 26.5934 39.4176 29.6964 37.344Z" fill="#E1A387"/>
<path d="M24.2496 25.3691C24.2496 25.9185 22.8482 25.6088 21.1354 25.6088C19.4225 25.6088 18.0211 25.9185 18.0211 25.3691C18.0211 24.8197 19.4194 23.6192 21.1354 23.6192C22.8513 23.6192 24.2496 24.8197 24.2496 25.3691Z" fill="#343434"/>
<path d="M33.2459 25.3691C33.2459 25.9185 31.8476 25.6088 30.1316 25.6088C28.4157 25.6088 27.0174 25.9185 27.0174 25.3691C27.0174 24.8197 28.4157 23.6192 30.1316 23.6192C31.8476 23.6192 33.2459 24.8197 33.2459 25.3691Z" fill="#343434"/>
</g>
</svg>
