<svg width="19" height="16" viewBox="0 0 19 16" fill="none" xmlns="http://www.w3.org/2000/svg">
<path d="M18.933 1.82552C18.2226 2.13625 17.4695 2.33851 16.699 2.42552C17.5133 1.95099 18.1202 1.18852 18.4 0.288523C17.6397 0.741581 16.8062 1.05866 15.937 1.22552C15.5805 0.846305 15.1515 0.542489 14.6754 0.332068C14.1994 0.121647 13.6859 0.00889808 13.1655 0.000505731C12.6451 -0.00788662 12.1283 0.0882474 11.6457 0.283209C11.1631 0.478171 10.7246 0.767997 10.356 1.13552C9.98936 1.49129 9.6995 1.9184 9.5043 2.39051C9.30909 2.86262 9.21268 3.36972 9.221 3.88052C9.22338 4.17952 9.2569 4.47746 9.321 4.76952C7.76424 4.69583 6.2418 4.28648 4.858 3.56952C3.49216 2.87285 2.28705 1.89834 1.32 0.708521C0.984306 1.28484 0.80247 1.9378 0.791962 2.60467C0.781455 3.27155 0.942629 3.92992 1.26 4.51652C1.5616 5.07299 1.99489 5.54714 2.522 5.89752C1.90631 5.87589 1.3048 5.70683 0.768 5.40452V5.45252C0.755631 6.35497 1.06914 7.2316 1.651 7.92152C2.21428 8.61528 3.00308 9.08948 3.88 9.26152C3.54673 9.3491 3.20358 9.39346 2.859 9.39352C2.61352 9.39173 2.36851 9.37167 2.126 9.33352C2.37531 10.1039 2.85888 10.7773 3.50926 11.2597C4.15964 11.7422 4.94438 12.0095 5.754 12.0245C4.38663 13.1151 2.68494 13.7007 0.936 13.6825C0.623362 13.6846 0.310859 13.6689 0 13.6355C1.77245 14.7881 3.84479 15.394 5.959 15.3775C7.28062 15.387 8.59373 15.1653 9.839 14.7225C10.9702 14.3308 12.0207 13.7365 12.939 12.9685C13.7948 12.2365 14.5408 11.3851 15.154 10.4405C15.7602 9.51877 16.2278 8.51306 16.542 7.45552C16.8429 6.44444 16.9971 5.39541 17 4.34052C17 4.11652 16.996 3.94985 16.988 3.84052C17.7481 3.28646 18.4062 2.60468 18.933 1.82552Z" fill="#0C0C41"/>
</svg>
