<svg width="21" height="20" viewBox="0 0 21 20" fill="none" xmlns="http://www.w3.org/2000/svg">
<path d="M12.0084 0.0973313C11.9053 0.0135411 11.7695 -0.0184915 11.6398 0.010403L0.337381 2.61866C0.138461 2.66438 -0.00189607 2.84232 1.93665e-05 3.04641V17.8265C0.000100874 18.041 0.156637 18.2234 0.368639 18.256L11.6711 19.9949C11.9084 20.0314 12.1303 19.8686 12.1668 19.6313C12.1701 19.6095 12.1718 19.5875 12.1718 19.5654V0.438157C12.1723 0.305584 12.1121 0.180103 12.0084 0.0973313Z" fill="#567DF4"/>
<path d="M5.14097 12.5193H4.01486L2.60901 7.49844H3.64905L4.61019 11.2211L5.65741 7.49844H6.50379L7.55817 11.2211L8.51931 7.49844H9.55936L8.15351 12.5193H7.02739L6.0806 9.20555L5.14097 12.5193Z" fill="white"/>
<path d="M20.4313 18.2613H11.7371C11.497 18.2613 11.3024 18.0667 11.3024 17.8266C11.3024 17.5865 11.497 17.3919 11.7371 17.3919H19.9966V2.61181H11.7371C11.497 2.61181 11.3024 2.41716 11.3024 2.17708C11.3024 1.937 11.497 1.7424 11.7371 1.7424H20.4313C20.6713 1.7424 20.866 1.93704 20.866 2.17712V17.8267C20.866 18.0667 20.6714 18.2613 20.4313 18.2613Z" fill="#567DF4"/>
<path d="M18.6918 5.21979H11.7365C11.4964 5.21979 11.3018 5.02515 11.3018 4.78506C11.3018 4.54498 11.4964 4.35034 11.7365 4.35034H18.6918C18.9319 4.35034 19.1266 4.54498 19.1266 4.78506C19.1266 5.02519 18.9319 5.21979 18.6918 5.21979Z" fill="#567DF4"/>
<path d="M18.6911 7.82846H11.7357C11.4957 7.82846 11.301 7.63382 11.301 7.39374C11.301 7.15366 11.4957 6.95901 11.7357 6.95901H18.6911C18.9312 6.95901 19.1258 7.15366 19.1258 7.39374C19.1258 7.63382 18.9312 7.82846 18.6911 7.82846Z" fill="#567DF4"/>
<path d="M18.6911 10.4369H11.7357C11.4957 10.4369 11.301 10.2423 11.301 10.0022C11.301 9.76212 11.4957 9.56747 11.7357 9.56747H18.6911C18.9312 9.56747 19.1258 9.76212 19.1258 10.0022C19.1258 10.2423 18.9312 10.4369 18.6911 10.4369Z" fill="#567DF4"/>
<path d="M18.6911 13.0454H11.7357C11.4957 13.0454 11.301 12.8507 11.301 12.6107C11.301 12.3706 11.4957 12.1759 11.7357 12.1759H18.6911C18.9312 12.1759 19.1258 12.3706 19.1258 12.6107C19.1258 12.8508 18.9312 13.0454 18.6911 13.0454Z" fill="#567DF4"/>
<path d="M18.6911 15.6533H11.7357C11.4957 15.6533 11.301 15.4586 11.301 15.2186C11.301 14.9785 11.4957 14.7838 11.7357 14.7838H18.6911C18.9312 14.7838 19.1258 14.9785 19.1258 15.2186C19.1258 15.4587 18.9312 15.6533 18.6911 15.6533Z" fill="#567DF4"/>
</svg>
